<?xml version="1.0" encoding="utf-8" ?>
<svg xmlns="http://www.w3.org/2000/svg" xmlns:ev="http://www.w3.org/2001/xml-events" xmlns:xlink="http://www.w3.org/1999/xlink" baseProfile="full" height="210.0mm" version="1.1" viewBox="0 0 297.0 210.0" width="297.0mm">
  <defs/>
  <line stroke="rgb(0,0,0)" stroke-width="0.5" x1="146.0" x2="151.0" y1="132.5" y2="137.5"/>
  <line stroke="rgb(0,0,0)" stroke-width="0.5" x1="146.0" x2="151.0" y1="137.5" y2="132.5"/>
  <line stroke="rgb(0,0,0)" stroke-width="3" x1="102.30602337443565" x2="93.0672280493228" y1="154.1341716182545" y2="157.9610059419054"/>
  <text alignment-baseline="middle" style="font-size:8; font-family:Roboto" text-anchor="middle" transform="rotate(-112.5, 91.21946898430022, 158.72637280663557)" x="91.21946898430022" y="158.72637280663557">0</text>
  <line stroke="rgb(0,0,0)" stroke-width="1" x1="100.31119671022802" x2="93.56476424965993" y1="148.33563787374493" y2="150.2026271760692"/>
  <line stroke="rgb(0,0,0)" stroke-width="1" x1="99.04117450176095" x2="92.11693893200749" y1="142.33652372276808" y2="143.3636370439556"/>
  <line stroke="rgb(0,0,0)" stroke-width="1" x1="98.51505906518979" x2="91.51716733431635" y1="136.2270614261456" y2="136.398850025806"/>
  <line stroke="rgb(0,0,0)" stroke-width="3" x1="98.74076366639015" x2="88.78891639966818" y1="130.09914298352197" y2="129.11897158022637"/>
  <text alignment-baseline="middle" style="font-size:8; font-family:Roboto" text-anchor="middle" transform="rotate(-84.375, 86.7985469463238, 128.92293729956725)" x="86.7985469463238" y="128.92293729956725">32</text>
  <line stroke="rgb(0,0,0)" stroke-width="1" x1="99.71489349807356" x2="92.88497858780387" y1="124.0449379921565" y2="122.51122931105843"/>
  <line stroke="rgb(0,0,0)" stroke-width="1" x1="101.42279674084895" x2="94.83198828456781" y1="118.155507330389" y2="115.79727835664346"/>
  <line stroke="rgb(0,0,0)" stroke-width="1" x1="103.83878494022423" x2="97.58621483185563" y1="112.51943351726968" y2="109.37215420968742"/>
  <line stroke="rgb(0,0,0)" stroke-width="3" x1="106.92651938487273" x2="98.61182326184729" y1="107.22148834901989" y2="101.66578601882387"/>
  <text alignment-baseline="middle" style="font-size:8; font-family:Roboto" text-anchor="middle" transform="rotate(-56.25, 96.9488840372422, 100.55464555278465)" x="96.9488840372422" y="100.55464555278465">64</text>
  <line stroke="rgb(0,0,0)" stroke-width="1" x1="110.63955767467579" x2="105.3390957491304" y1="102.34135785231116" y2="97.76914795163472"/>
  <line stroke="rgb(0,0,0)" stroke-width="1" x1="114.92205225764909" x2="110.22113957371995" y1="97.95244373225205" y2="92.76578585476733"/>
  <line stroke="rgb(0,0,0)" stroke-width="1" x1="119.70959042910773" x2="115.6789330891828" y1="94.12075934242081" y2="88.39766565035973"/>
  <line stroke="rgb(0,0,0)" stroke-width="3" x1="124.93016315870011" x2="120.21619579044014" y1="90.90393678258225" y2="82.0847241390987"/>
  <text alignment-baseline="middle" style="font-size:8; font-family:Roboto" text-anchor="middle" transform="rotate(-28.125, 119.27340231678815, 80.32088161040198)" x="119.27340231678815" y="80.32088161040198">96</text>
  <line stroke="rgb(0,0,0)" stroke-width="1" x1="130.5052481732506" x2="127.98598291750568" y1="88.35036005826305" y2="81.8194104664199"/>
  <line stroke="rgb(0,0,0)" stroke-width="1" x1="136.3509910048368" x2="134.65012974551396" y1="86.4984373402728" y2="79.70821856791099"/>
  <line stroke="rgb(0,0,0)" stroke-width="1" x1="142.3794662400392" x2="141.52259151364467" y1="85.37602327006451" y2="78.42866652787353"/>
  <line stroke="rgb(0,0,0)" stroke-width="3" x1="148.5" x2="148.5" y1="85.0" y2="75.0"/>
  <text alignment-baseline="middle" style="font-size:8; font-family:Roboto" text-anchor="middle" transform="rotate(0.0, 148.5, 73.0)" x="148.5" y="73.0">128</text>
  <line stroke="rgb(0,0,0)" stroke-width="1" x1="154.6205337599608" x2="155.47740848635533" y1="85.37602327006451" y2="78.42866652787353"/>
  <line stroke="rgb(0,0,0)" stroke-width="1" x1="160.6490089951632" x2="162.34987025448604" y1="86.4984373402728" y2="79.70821856791099"/>
  <line stroke="rgb(0,0,0)" stroke-width="1" x1="166.4947518267494" x2="169.01401708249432" y1="88.35036005826305" y2="81.8194104664199"/>
  <line stroke="rgb(0,0,0)" stroke-width="3" x1="172.0698368412999" x2="176.78380420955986" y1="90.90393678258225" y2="82.0847241390987"/>
  <text alignment-baseline="middle" style="font-size:8; font-family:Roboto" text-anchor="middle" transform="rotate(28.125, 177.72659768321185, 80.32088161040198)" x="177.72659768321185" y="80.32088161040198">160</text>
  <line stroke="rgb(0,0,0)" stroke-width="1" x1="177.29040957089228" x2="181.3210669108172" y1="94.12075934242081" y2="88.39766565035973"/>
  <line stroke="rgb(0,0,0)" stroke-width="1" x1="182.07794774235091" x2="186.77886042628006" y1="97.95244373225205" y2="92.76578585476733"/>
  <line stroke="rgb(0,0,0)" stroke-width="1" x1="186.36044232532421" x2="191.6609042508696" y1="102.34135785231116" y2="97.76914795163472"/>
  <line stroke="rgb(0,0,0)" stroke-width="3" x1="190.07348061512727" x2="198.3881767381527" y1="107.22148834901989" y2="101.66578601882387"/>
  <text alignment-baseline="middle" style="font-size:8; font-family:Roboto" text-anchor="middle" transform="rotate(56.25, 200.05111596275782, 100.55464555278465)" x="200.05111596275782" y="100.55464555278465">192</text>
  <line stroke="rgb(0,0,0)" stroke-width="1" x1="193.16121505977577" x2="199.4137851681444" y1="112.51943351726968" y2="109.37215420968742"/>
  <line stroke="rgb(0,0,0)" stroke-width="1" x1="195.57720325915105" x2="202.1680117154322" y1="118.155507330389" y2="115.79727835664346"/>
  <line stroke="rgb(0,0,0)" stroke-width="1" x1="197.28510650192644" x2="204.11502141219614" y1="124.0449379921565" y2="122.51122931105843"/>
  <line stroke="rgb(0,0,0)" stroke-width="3" x1="198.25923633360986" x2="208.21108360033182" y1="130.09914298352197" y2="129.11897158022637"/>
  <text alignment-baseline="middle" style="font-size:8; font-family:Roboto" text-anchor="middle" transform="rotate(84.375, 210.2014530536762, 128.92293729956725)" x="210.2014530536762" y="128.92293729956725">224</text>
  <line stroke="rgb(0,0,0)" stroke-width="1" x1="198.4849409348102" x2="205.48283266568365" y1="136.2270614261456" y2="136.398850025806"/>
  <line stroke="rgb(0,0,0)" stroke-width="1" x1="197.95882549823904" x2="204.88306106799251" y1="142.33652372276808" y2="143.3636370439556"/>
  <line stroke="rgb(0,0,0)" stroke-width="1" x1="196.68880328977198" x2="203.43523575034007" y1="148.33563787374493" y2="150.2026271760692"/>
  <line stroke="rgb(0,0,0)" stroke-width="3" x1="194.69397662556435" x2="203.9327719506772" y1="154.1341716182545" y2="157.9610059419054"/>
  <text alignment-baseline="middle" style="font-size:8; font-family:Roboto" text-anchor="middle" transform="rotate(112.5, 205.78053101569978, 158.72637280663557)" x="205.78053101569978" y="158.72637280663557">256</text>
  <rect fill="none" height="125.72637280663557" rx="10" ry="10" stroke="rgb(0,0,0)" stroke-width="0.5" width="163.4029061073524" x="66.7985469463238" y="53.0"/>
  <rect fill="none" height="170.72637280663557" stroke="rgb(0,0,0)" stroke-width="0.5" width="193.4029061073524" x="51.798546946323796" y="23.0"/>
  <rect fill="none" height="15" stroke="rgb(0,0,0)" stroke-width="0.5" width="143.4029061073524" x="76.7985469463238" y="38.0"/>
  <rect fill="none" height="14" stroke="rgb(0,0,0)" stroke-width="0.5" width="30" x="133.5" y="150.0"/>
</svg>
