<?xml version="1.0" encoding="utf-8" ?>
<svg xmlns="http://www.w3.org/2000/svg" xmlns:ev="http://www.w3.org/2001/xml-events" xmlns:xlink="http://www.w3.org/1999/xlink" baseProfile="full" height="297.0mm" version="1.1" viewBox="0 0 210.0 297.0" width="210.0mm">
  <defs/>
  <line stroke="rgb(0,0,0)" x1="102.5" x2="107.5" y1="146.0" y2="151.0"/>
  <line stroke="rgb(0,0,0)" x1="102.5" x2="107.5" y1="151.0" y2="146.0"/>
  <line stroke="rgb(0,0,0)" stroke-width="3" x1="58.80602337443566" x2="49.56722804932279" y1="167.6341716182545" y2="171.4610059419054"/>
  <text alignment-baseline="middle" style="font-size:8; font-family:Roboto" text-anchor="middle" transform="rotate(-112.5, 47.71946898430022, 172.22637280663557)" x="47.71946898430022" y="172.22637280663557">0</text>
  <line stroke="rgb(0,0,0)" stroke-width="1" x1="56.81119671022801" x2="50.06476424965993" y1="161.83563787374493" y2="163.7026271760692"/>
  <line stroke="rgb(0,0,0)" stroke-width="1" x1="55.54117450176095" x2="48.616938932007486" y1="155.83652372276808" y2="156.8636370439556"/>
  <line stroke="rgb(0,0,0)" stroke-width="1" x1="55.01505906518979" x2="48.017167334316355" y1="149.7270614261456" y2="149.898850025806"/>
  <line stroke="rgb(0,0,0)" stroke-width="3" x1="55.24076366639015" x2="45.28891639966818" y1="143.59914298352197" y2="142.61897158022637"/>
  <text alignment-baseline="middle" style="font-size:8; font-family:Roboto" text-anchor="middle" transform="rotate(-84.375, 43.29854694632379, 142.42293729956725)" x="43.29854694632379" y="142.42293729956725">32</text>
  <line stroke="rgb(0,0,0)" stroke-width="1" x1="56.21489349807357" x2="49.38497858780387" y1="137.54493799215652" y2="136.01122931105843"/>
  <line stroke="rgb(0,0,0)" stroke-width="1" x1="57.92279674084896" x2="51.331988284567814" y1="131.65550733038899" y2="129.29727835664346"/>
  <line stroke="rgb(0,0,0)" stroke-width="1" x1="60.33878494022424" x2="54.08621483185563" y1="126.01943351726968" y2="122.87215420968742"/>
  <line stroke="rgb(0,0,0)" stroke-width="3" x1="63.42651938487274" x2="55.111823261847285" y1="120.72148834901989" y2="115.16578601882387"/>
  <text alignment-baseline="middle" style="font-size:8; font-family:Roboto" text-anchor="middle" transform="rotate(-56.25, 53.448884037242195, 114.05464555278465)" x="53.448884037242195" y="114.05464555278465">64</text>
  <line stroke="rgb(0,0,0)" stroke-width="1" x1="67.13955767467579" x2="61.83909574913039" y1="115.84135785231116" y2="111.26914795163472"/>
  <line stroke="rgb(0,0,0)" stroke-width="1" x1="71.42205225764909" x2="66.72113957371995" y1="111.45244373225205" y2="106.26578585476733"/>
  <line stroke="rgb(0,0,0)" stroke-width="1" x1="76.20959042910773" x2="72.1789330891828" y1="107.62075934242081" y2="101.89766565035973"/>
  <line stroke="rgb(0,0,0)" stroke-width="3" x1="81.43016315870011" x2="76.71619579044014" y1="104.40393678258225" y2="95.5847241390987"/>
  <text alignment-baseline="middle" style="font-size:8; font-family:Roboto" text-anchor="middle" transform="rotate(-28.125, 75.77340231678815, 93.82088161040198)" x="75.77340231678815" y="93.82088161040198">96</text>
  <line stroke="rgb(0,0,0)" stroke-width="1" x1="87.00524817325059" x2="84.48598291750568" y1="101.85036005826305" y2="95.3194104664199"/>
  <line stroke="rgb(0,0,0)" stroke-width="1" x1="92.8509910048368" x2="91.15012974551396" y1="99.9984373402728" y2="93.20821856791099"/>
  <line stroke="rgb(0,0,0)" stroke-width="1" x1="98.87946624003919" x2="98.02259151364467" y1="98.87602327006451" y2="91.92866652787353"/>
  <line stroke="rgb(0,0,0)" stroke-width="3" x1="105.0" x2="105.0" y1="98.5" y2="88.5"/>
  <text alignment-baseline="middle" style="font-size:8; font-family:Roboto" text-anchor="middle" transform="rotate(0.0, 105.0, 86.5)" x="105.0" y="86.5">128</text>
  <line stroke="rgb(0,0,0)" stroke-width="1" x1="111.12053375996081" x2="111.97740848635533" y1="98.87602327006451" y2="91.92866652787353"/>
  <line stroke="rgb(0,0,0)" stroke-width="1" x1="117.1490089951632" x2="118.84987025448604" y1="99.9984373402728" y2="93.20821856791099"/>
  <line stroke="rgb(0,0,0)" stroke-width="1" x1="122.99475182674941" x2="125.51401708249432" y1="101.85036005826305" y2="95.3194104664199"/>
  <line stroke="rgb(0,0,0)" stroke-width="3" x1="128.5698368412999" x2="133.28380420955986" y1="104.40393678258225" y2="95.5847241390987"/>
  <text alignment-baseline="middle" style="font-size:8; font-family:Roboto" text-anchor="middle" transform="rotate(28.125, 134.22659768321185, 93.82088161040198)" x="134.22659768321185" y="93.82088161040198">160</text>
  <line stroke="rgb(0,0,0)" stroke-width="1" x1="133.79040957089228" x2="137.8210669108172" y1="107.62075934242081" y2="101.89766565035973"/>
  <line stroke="rgb(0,0,0)" stroke-width="1" x1="138.57794774235091" x2="143.27886042628006" y1="111.45244373225205" y2="106.26578585476733"/>
  <line stroke="rgb(0,0,0)" stroke-width="1" x1="142.86044232532421" x2="148.1609042508696" y1="115.84135785231116" y2="111.26914795163472"/>
  <line stroke="rgb(0,0,0)" stroke-width="3" x1="146.57348061512727" x2="154.8881767381527" y1="120.72148834901989" y2="115.16578601882387"/>
  <text alignment-baseline="middle" style="font-size:8; font-family:Roboto" text-anchor="middle" transform="rotate(56.25, 156.55111596275782, 114.05464555278465)" x="156.55111596275782" y="114.05464555278465">192</text>
  <line stroke="rgb(0,0,0)" stroke-width="1" x1="149.66121505977577" x2="155.9137851681444" y1="126.01943351726968" y2="122.87215420968742"/>
  <line stroke="rgb(0,0,0)" stroke-width="1" x1="152.07720325915105" x2="158.6680117154322" y1="131.65550733038899" y2="129.29727835664346"/>
  <line stroke="rgb(0,0,0)" stroke-width="1" x1="153.78510650192644" x2="160.61502141219614" y1="137.54493799215652" y2="136.01122931105843"/>
  <line stroke="rgb(0,0,0)" stroke-width="3" x1="154.75923633360986" x2="164.71108360033182" y1="143.59914298352197" y2="142.61897158022637"/>
  <text alignment-baseline="middle" style="font-size:8; font-family:Roboto" text-anchor="middle" transform="rotate(84.375, 166.7014530536762, 142.42293729956725)" x="166.7014530536762" y="142.42293729956725">224</text>
  <line stroke="rgb(0,0,0)" stroke-width="1" x1="154.9849409348102" x2="161.98283266568365" y1="149.7270614261456" y2="149.898850025806"/>
  <line stroke="rgb(0,0,0)" stroke-width="1" x1="154.45882549823904" x2="161.38306106799251" y1="155.83652372276808" y2="156.8636370439556"/>
  <line stroke="rgb(0,0,0)" stroke-width="1" x1="153.18880328977198" x2="159.93523575034007" y1="161.83563787374493" y2="163.7026271760692"/>
  <line stroke="rgb(0,0,0)" stroke-width="3" x1="151.19397662556435" x2="160.4327719506772" y1="167.6341716182545" y2="171.4610059419054"/>
  <text alignment-baseline="middle" style="font-size:8; font-family:Roboto" text-anchor="middle" transform="rotate(112.5, 162.28053101569978, 172.22637280663557)" x="162.28053101569978" y="172.22637280663557">256</text>
  <rect fill="none" height="125.72637280663557" rx="10" ry="10" stroke="rgb(0,0,0)" width="163.4029061073524" x="23.29854694632379" y="66.5"/>
  <rect fill="none" height="14" stroke="rgb(0,0,0)" width="30" x="90.0" y="163.5"/>
</svg>
