<?xml version="1.0" encoding="UTF-8" standalone="no"?>
<!-- Created with Inkscape (http://www.inkscape.org/) -->

<svg
   width="210mm"
   height="297mm"
   viewBox="0 0 210 297"
   version="1.1"
   id="svg884"
   inkscape:version="1.1.2 (0a00cf5339, 2022-02-04)"
   sodipodi:docname="gears.svg"
   xmlns:inkscape="http://www.inkscape.org/namespaces/inkscape"
   xmlns:sodipodi="http://sodipodi.sourceforge.net/DTD/sodipodi-0.dtd"
   xmlns="http://www.w3.org/2000/svg"
   xmlns:svg="http://www.w3.org/2000/svg">
  <sodipodi:namedview
     id="namedview886"
     pagecolor="#ffffff"
     bordercolor="#666666"
     borderopacity="1.0"
     inkscape:pageshadow="2"
     inkscape:pageopacity="0.0"
     inkscape:pagecheckerboard="0"
     inkscape:document-units="mm"
     showgrid="false"
     inkscape:zoom="0.33701158"
     inkscape:cx="706.2072"
     inkscape:cy="562.29523"
     inkscape:window-width="1366"
     inkscape:window-height="719"
     inkscape:window-x="0"
     inkscape:window-y="25"
     inkscape:window-maximized="1"
     inkscape:current-layer="layer1"
     inkscape:snap-global="false"
     inkscape:snap-bbox="true"
     inkscape:snap-object-midpoints="true" />
  <defs
     id="defs881" />
  <g
     inkscape:label="Ebene 1"
     inkscape:groupmode="layer"
     id="layer1">
    <g
       inkscape:label="Rendered Gears"
       transform="translate(94.740771,97.866877)"
       id="gear_large"
       style="fill:none;fill-opacity:1">
      <path
         style="fill:none;fill-opacity:1;stroke:#000000;stroke-width:0.264583"
         d="m 71.3073,-6.68271 3.1448,-0.29473 4.8801,0.73386 8.1594,3.4792 v 5.52876 l -8.1594,3.4792 -4.8801,0.73386 -3.1448,-0.29473 -1.425,8.99679 3.082,0.6915 4.4144,2.206 6.685,5.8303 -1.7085,5.2582 -8.8352,0.7875 -4.868,-0.8101 -2.8998,-1.2521 -4.1354,8.1161 2.7175,1.6101 3.5166,3.4621 4.5561,7.6107 -3.2497,4.4729 -8.6461,-1.9813 -4.3794,-2.2747 -2.371,-2.0869 -6.441,6.441 2.0869,2.371 2.2747,4.3794 1.9813,8.6461 -4.4729,3.2497 -7.6107,-4.5561 -3.4621,-3.5166 -1.6101,-2.7175 -8.1161,4.1354 1.2521,2.8998 0.8101,4.868 -0.7875,8.8352 -5.2582,1.7085 -5.8303,-6.685 -2.206,-4.4144 -0.6915,-3.082 -8.99679,1.425 0.29473,3.1448 -0.73386,4.8801 -3.4792,8.1594 h -5.52876 l -3.4792,-8.1594 -0.73386,-4.8801 0.29473,-3.1448 -8.99679,-1.425 -0.6915,3.082 -2.206,4.4144 -5.8303,6.685 -5.2582,-1.7085 -0.7875,-8.8352 0.8101,-4.868 1.2521,-2.8998 -8.1161,-4.1354 -1.6101,2.7175 -3.4621,3.5166 -7.6107,4.5561 -4.4729,-3.2497 1.9813,-8.6461 2.2747,-4.3794 2.0869,-2.371 -6.441,-6.441 -2.371,2.0869 -4.3794,2.2747 -8.6461,1.9813 -3.2497,-4.4729 4.5561,-7.6107 3.5166,-3.4621 2.7175,-1.6101 -4.1354,-8.1161 -2.8998,1.2521 -4.868,0.8101 -8.8352,-0.7875 -1.7085,-5.2582 6.685,-5.8303 4.4144,-2.206 3.082,-0.6915 -1.425,-8.99679 -3.1448,0.29473 -4.8801,-0.73386 -8.1594,-3.4792 v -5.52876 l 8.1594,-3.4792 4.8801,-0.73386 3.1448,0.29473 1.425,-8.99679 -3.082,-0.6915 -4.4144,-2.206 -6.685,-5.8303 1.7085,-5.2582 8.8352,-0.7875 4.868,0.8101 2.8998,1.2521 4.1354,-8.1161 -2.7175,-1.6101 -3.5166,-3.4621 -4.5561,-7.6107 3.2497,-4.4729 8.6461,1.9813 4.3794,2.2747 2.371,2.0869 6.441,-6.441 -2.0869,-2.371 -2.2747,-4.3794 -1.9813,-8.6461 4.4729,-3.2497 7.6107,4.5561 3.4621,3.5166 1.6101,2.7175 8.1161,-4.1354 -1.2521,-2.8998 -0.8101,-4.868 0.7875,-8.8352 5.2582,-1.7085 5.8303,6.685 2.206,4.4144 0.6915,3.082 8.99679,-1.425 -0.29473,-3.1448 0.73386,-4.8801 3.4792,-8.1594 h 5.52876 l 3.4792,8.1594 0.73386,4.8801 -0.29473,3.1448 8.99679,1.425 0.6915,-3.082 2.206,-4.4144 5.8303,-6.685 5.2582,1.7085 0.7875,8.8352 -0.8101,4.868 -1.2521,2.8998 8.1161,4.1354 1.6101,-2.7175 3.4621,-3.5166 7.6107,-4.5561 4.4729,3.2497 -1.9813,8.6461 -2.2747,4.3794 -2.0869,2.371 6.441,6.441 2.371,-2.0869 4.3794,-2.2747 8.6461,-1.9813 3.2497,4.4729 -4.5561,7.6107 -3.5166,3.4621 -2.7175,1.6101 4.1354,8.1161 2.8998,-1.2521 4.868,-0.8101 8.8352,0.7875 1.7085,5.2582 -6.685,5.8303 -4.4144,2.206 -3.082,0.6915 z"
         id="path6032" />
      <circle
         style="fill:none;fill-opacity:1;stroke:#000000;stroke-width:0.264583"
         id="path6034"
         cx="0"
         cy="0"
         r="1" />
    </g>
    <g
       inkscape:label="Rendered Gears"
       transform="translate(147.21115,238.25322)"
       id="gear_small"
       style="fill:none;fill-opacity:1">
      <path
         style="fill:none;fill-opacity:1;stroke:#000000;stroke-width:0.264583"
         d="m 31.3614,-5.44747 5.4762,-0.95122 2.4613,0.17436 8.3903,3.88683 v 4.675 l -8.3903,3.88683 -2.4613,0.17436 -5.4762,-0.95122 -2.7876,8.57923 4.9895,2.4492 1.8887,1.5878 4.5034,8.0762 -2.7479,3.7822 -9.0726,-1.7872 -2.0937,-1.3057 -3.8712,-3.9883 -7.2979,5.3022 2.5968,4.9142 0.5948,2.3947 -1.1038,9.1808 -4.4462,1.4447 -6.28937,-6.7786 -0.9264,-2.287 -0.78758,-5.5021 h -9.0207 l -0.78758,5.5021 -0.9264,2.287 -6.28937,6.7786 -4.4462,-1.4447 -1.1038,-9.1808 0.5948,-2.3947 2.5968,-4.9142 -7.2979,-5.3022 -3.8712,3.9883 -2.0937,1.3057 -9.0726,1.7872 -2.7479,-3.7822 4.5034,-8.0762 1.8887,-1.5878 4.9895,-2.4492 -2.7876,-8.57923 -5.4762,0.95122 -2.4613,-0.17436 -8.3903,-3.88683 v -4.675 l 8.3903,-3.88683 2.4613,-0.17436 5.4762,0.95122 2.7876,-8.57923 -4.9895,-2.4492 -1.8887,-1.5878 -4.5034,-8.0762 2.7479,-3.7822 9.0726,1.7872 2.0937,1.3057 3.8712,3.9883 7.2979,-5.3022 -2.5968,-4.9142 -0.5948,-2.3947 1.1038,-9.1808 4.4462,-1.4447 6.28937,6.7786 0.9264,2.287 0.78758,5.5021 h 9.0207 l 0.78758,-5.5021 0.9264,-2.287 6.28937,-6.7786 4.4462,1.4447 1.1038,9.1808 -0.5948,2.3947 -2.5968,4.9142 7.2979,5.3022 3.8712,-3.9883 2.0937,-1.3057 9.0726,-1.7872 2.7479,3.7822 -4.5034,8.0762 -1.8887,1.5878 -4.9895,2.4492 z"
         id="path6313" />
      <circle
         style="fill:none;fill-opacity:1;stroke:#000000;stroke-width:0.264583"
         id="path6315"
         cx="0"
         cy="0"
         r="1" />
    </g>
    <text
       xml:space="preserve"
       style="font-style:normal;font-weight:normal;font-size:4.93889px;line-height:1.25;font-family:sans-serif;fill:#000000;fill-opacity:1;stroke:none;stroke-width:0.264583"
       x="8.5591822"
       y="267.4556"
       id="text7378"><tspan
         sodipodi:role="line"
         id="tspan7376"
         style="font-size:4.93889px;stroke-width:0.264583"
         x="8.5591822"
         y="267.4556">Teeth: 10 and 20</tspan><tspan
         sodipodi:role="line"
         style="font-size:4.93889px;stroke-width:0.264583"
         x="8.5591822"
         y="273.62921"
         id="tspan9456">Circle divisions: 25</tspan><tspan
         sodipodi:role="line"
         style="font-size:4.93889px;stroke-width:0.264583"
         x="8.5591822"
         y="279.80283"
         id="tspan13992">Pressure Angle: 20 deg</tspan><tspan
         sodipodi:role="line"
         style="font-size:4.93889px;stroke-width:0.264583"
         x="8.5591822"
         y="285.97644"
         id="tspan9460">Unit: mm</tspan></text>
  </g>
</svg>
