<?xml version="1.0" encoding="UTF-8" standalone="no"?>
<!-- Created with Inkscape (http://www.inkscape.org/) -->

<svg
   width="210mm"
   height="297mm"
   viewBox="0 0 210 297"
   version="1.1"
   id="svg5"
   sodipodi:docname="gears_v2.svg"
   inkscape:version="1.1.2 (0a00cf5339, 2022-02-04)"
   xmlns:inkscape="http://www.inkscape.org/namespaces/inkscape"
   xmlns:sodipodi="http://sodipodi.sourceforge.net/DTD/sodipodi-0.dtd"
   xmlns="http://www.w3.org/2000/svg"
   xmlns:svg="http://www.w3.org/2000/svg">
  <sodipodi:namedview
     id="namedview7"
     pagecolor="#ffffff"
     bordercolor="#666666"
     borderopacity="1.0"
     inkscape:pageshadow="2"
     inkscape:pageopacity="0.0"
     inkscape:pagecheckerboard="0"
     inkscape:document-units="mm"
     showgrid="false"
     inkscape:zoom="0.95321268"
     inkscape:cx="597.45323"
     inkscape:cy="-208.24314"
     inkscape:window-width="1366"
     inkscape:window-height="719"
     inkscape:window-x="0"
     inkscape:window-y="25"
     inkscape:window-maximized="1"
     inkscape:current-layer="layer1"
     inkscape:snap-global="false" />
  <defs
     id="defs2" />
  <g
     inkscape:label="Layer 1"
     inkscape:groupmode="layer"
     id="layer1">
    <g
       id="g3157"
       transform="translate(-253.9183,-243.08324)">
      <path
         style="fill:none;stroke:#000000;stroke-width:0.6"
         d="m 439.13455,431.59328 1.1738,0.1596 1.1783,0.2323 1.1815,0.2941 1.1835,0.3497 1.1844,0.4011 1.1846,0.4495 1.1838,0.4958 1.1822,0.5403 1.18,0.5835 1.177,0.6254 1.1731,0.6665 0.0136,0.9275 0.004,0.9277 -0.004,0.9277 -0.0136,0.9275 -1.1731,0.6665 -1.177,0.6254 -1.18,0.5835 -1.1822,0.5403 -1.1838,0.4958 -1.1846,0.4495 -1.1844,0.4011 -1.1835,0.3497 -1.1815,0.2941 -1.1783,0.2323 -1.1738,0.1596 -0.1159,1.3076 -0.1366,1.3056 -0.1573,1.3033 -0.178,1.3007 1.1088,0.4167 1.0971,0.4887 1.0865,0.5497 1.0759,0.6042 1.0655,0.6546 1.0548,0.7019 1.0438,0.7468 1.0324,0.7898 1.0206,0.8314 1.0083,0.8717 0.9954,0.9108 -0.1932,0.9073 -0.202,0.9054 -0.2109,0.9034 -0.2195,0.9013 -1.2921,0.3887 -1.2866,0.3478 -1.2802,0.3063 -1.2729,0.2637 -1.2644,0.2199 -1.2549,0.1747 -1.244,0.1275 -1.2316,0.0775 -1.2173,0.0239 -1.2006,-0.0358 -1.1798,-0.1056 -0.4039,1.2491 -0.4238,1.2425 -0.4434,1.2356 -0.4629,1.2284 0.9883,0.6531 0.9609,0.7205 0.9368,0.7777 0.9146,0.8285 0.8931,0.8753 0.8722,0.9189 0.8514,0.9604 0.8308,0.9997 0.81,1.0377 0.789,1.0741 0.7678,1.1095 -0.3903,0.8416 -0.3984,0.8377 -0.4066,0.8339 -0.4146,0.8298 -1.3462,0.0915 -1.3317,0.0528 -1.3163,0.0137 -1.2996,-0.0261 -1.2817,-0.067 -1.2623,-0.1089 -1.2411,-0.1526 -1.218,-0.1984 -1.1921,-0.2476 -1.1625,-0.302 -1.1267,-0.3655 -0.6718,1.1278 -0.6896,1.1171 -0.7072,1.1059 -0.7247,1.0947 0.8181,0.8565 0.7765,0.9164 0.7404,0.9666 0.7072,1.0112 0.676,1.0521 0.6458,1.09 0.6164,1.1257 0.5874,1.1596 0.5588,1.1919 0.5302,1.2228 0.5017,1.2525 -0.5677,0.7336 -0.5749,0.7281 -0.5819,0.7225 -0.5889,0.7167 -1.3328,-0.2104 -1.3101,-0.2448 -1.2863,-0.2795 -1.2612,-0.3147 -1.2347,-0.3505 -1.2064,-0.3871 -1.1761,-0.4249 -1.1432,-0.4645 -1.1072,-0.5067 -1.0661,-0.5531 -1.0172,-0.607 -0.9059,0.9501 -0.9208,0.9356 -0.9356,0.9208 -0.9501,0.9059 0.607,1.0172 0.5531,1.0661 0.5067,1.1072 0.4645,1.1432 0.4249,1.1761 0.3871,1.2064 0.3505,1.2347 0.3147,1.2612 0.2795,1.2863 0.2448,1.3101 0.2104,1.3328 -0.7167,0.5889 -0.7225,0.5819 -0.7281,0.5749 -0.7336,0.5677 -1.2525,-0.5017 -1.2228,-0.5302 -1.1919,-0.5588 -1.1596,-0.5874 -1.1257,-0.6164 -1.09,-0.6458 -1.0521,-0.676 -1.0112,-0.7072 -0.9666,-0.7404 -0.9164,-0.7765 -0.8565,-0.8181 -1.0947,0.7247 -1.1059,0.7072 -1.1171,0.6896 -1.1278,0.6718 0.3655,1.1267 0.302,1.1625 0.2476,1.1921 0.1984,1.218 0.1526,1.2411 0.1089,1.2623 0.067,1.2817 0.0261,1.2996 -0.0137,1.3163 -0.0528,1.3317 -0.0915,1.3462 -0.8298,0.4146 -0.8339,0.4066 -0.8377,0.3984 -0.8416,0.3903 -1.1095,-0.7678 -1.0741,-0.789 -1.0377,-0.81 -0.9997,-0.8308 -0.9604,-0.8514 -0.9189,-0.8722 -0.8753,-0.8931 -0.8285,-0.9146 -0.7777,-0.9368 -0.7205,-0.9609 -0.6531,-0.9883 -1.2284,0.4629 -1.2356,0.4434 -1.2425,0.4238 -1.2491,0.4039 0.1056,1.1798 0.0358,1.2006 -0.0239,1.2173 -0.0775,1.2316 -0.1275,1.244 -0.1747,1.2549 -0.2199,1.2644 -0.2637,1.2729 -0.3063,1.2802 -0.3478,1.2866 -0.3887,1.2921 -0.9013,0.2195 -0.9034,0.2109 -0.9054,0.202 -0.9073,0.1932 -0.9108,-0.9954 -0.8717,-1.0083 -0.8314,-1.0206 -0.7898,-1.0324 -0.7468,-1.0438 -0.7019,-1.0548 -0.6546,-1.0655 -0.6042,-1.0759 -0.5497,-1.0865 -0.4887,-1.0971 -0.4167,-1.1088 -1.3007,0.178 -1.3033,0.1573 -1.3056,0.1366 -1.3076,0.1159 -0.1596,1.1738 -0.2323,1.1783 -0.2941,1.1815 -0.3497,1.1835 -0.4011,1.1844 -0.4495,1.1846 -0.4958,1.1838 -0.5403,1.1822 -0.5835,1.18 -0.6254,1.177 -0.6665,1.1731 -0.9275,0.0136 -0.9277,0.005 -0.9277,-0.005 -0.9275,-0.0136 -0.6665,-1.1731 -0.6254,-1.177 -0.5835,-1.18 -0.5403,-1.1822 -0.4958,-1.1838 -0.4495,-1.1846 -0.4011,-1.1844 -0.3497,-1.1835 -0.2941,-1.1815 -0.2323,-1.1783 -0.1596,-1.1738 -1.3076,-0.1159 -1.3056,-0.1366 -1.3033,-0.1573 -1.3007,-0.178 -0.4167,1.1088 -0.4887,1.0971 -0.5497,1.0865 -0.6042,1.0759 -0.6546,1.0655 -0.7019,1.0548 -0.7468,1.0438 -0.7898,1.0324 -0.8314,1.0206 -0.8717,1.0083 -0.9108,0.9954 -0.9073,-0.1932 -0.9054,-0.202 -0.9034,-0.2109 -0.9013,-0.2195 -0.3887,-1.2921 -0.3478,-1.2866 -0.3063,-1.2802 -0.2637,-1.2729 -0.2199,-1.2644 -0.1747,-1.2549 -0.1275,-1.244 -0.0775,-1.2316 -0.0239,-1.2173 0.0358,-1.2006 0.1056,-1.1798 -1.2491,-0.4039 -1.2425,-0.4238 -1.2356,-0.4434 -1.2284,-0.4629 -0.6531,0.9883 -0.7205,0.9609 -0.7777,0.9368 -0.8285,0.9146 -0.8753,0.8931 -0.9189,0.8722 -0.9604,0.8514 -0.9997,0.8308 -1.0377,0.81 -1.0741,0.789 -1.1095,0.7678 -0.8416,-0.3903 -0.8377,-0.3984 -0.8339,-0.4066 -0.8298,-0.4146 -0.0915,-1.3462 -0.0528,-1.3317 -0.0137,-1.3163 0.0261,-1.2996 0.067,-1.2817 0.1089,-1.2623 0.1526,-1.2411 0.1984,-1.218 0.2476,-1.1921 0.302,-1.1625 0.3655,-1.1267 -1.1278,-0.6718 -1.1171,-0.6896 -1.1059,-0.7072 -1.0947,-0.7247 -0.8565,0.8181 -0.9164,0.7765 -0.9666,0.7404 -1.0112,0.7072 -1.0521,0.676 -1.09,0.6458 -1.1257,0.6164 -1.1596,0.5874 -1.1919,0.5588 -1.2228,0.5302 -1.2525,0.5017 -0.7336,-0.5677 -0.7281,-0.5749 -0.7225,-0.5819 -0.7167,-0.5889 0.2104,-1.3328 0.2448,-1.3101 0.2795,-1.2863 0.3147,-1.2612 0.3505,-1.2347 0.3871,-1.2064 0.4249,-1.1761 0.4645,-1.1432 0.5067,-1.1072 0.5531,-1.0661 0.607,-1.0172 -0.9501,-0.9059 -0.9356,-0.9208 -0.9208,-0.9356 -0.9059,-0.9501 -1.0172,0.607 -1.0661,0.5531 -1.1072,0.5067 -1.1432,0.4645 -1.1761,0.4249 -1.2064,0.3871 -1.2347,0.3505 -1.2612,0.3147 -1.2863,0.2795 -1.3101,0.2448 -1.3328,0.2104 -0.5889,-0.7167 -0.5819,-0.7225 -0.5749,-0.7281 -0.5677,-0.7336 0.5017,-1.2525 0.5302,-1.2228 0.5588,-1.1919 0.5874,-1.1596 0.6164,-1.1257 0.6458,-1.09 0.676,-1.0521 0.7072,-1.0112 0.7404,-0.9666 0.7765,-0.9164 0.8181,-0.8565 -0.7247,-1.0947 -0.7072,-1.1059 -0.6896,-1.1171 -0.6718,-1.1278 -1.1267,0.3655 -1.1625,0.302 -1.1921,0.2476 -1.218,0.1984 -1.2411,0.1526 -1.2623,0.1089 -1.2817,0.067 -1.2996,0.0261 -1.3163,-0.0137 -1.3317,-0.0528 -1.3462,-0.0915 -0.4146,-0.8298 -0.4066,-0.8339 -0.3984,-0.8377 -0.3903,-0.8416 0.7678,-1.1095 0.789,-1.0741 0.81,-1.0377 0.8308,-0.9997 0.8514,-0.9604 0.8722,-0.9189 0.8931,-0.8753 0.9146,-0.8285 0.9368,-0.7777 0.9609,-0.7205 0.9883,-0.6531 -0.4629,-1.2284 -0.4434,-1.2356 -0.4238,-1.2425 -0.4039,-1.2491 -1.1798,0.1056 -1.2006,0.0358 -1.2173,-0.0239 -1.2316,-0.0775 -1.244,-0.1275 -1.2549,-0.1747 -1.2644,-0.2199 -1.2729,-0.2637 -1.2802,-0.3063 -1.2866,-0.3478 -1.2921,-0.3887 -0.2195,-0.9013 -0.2109,-0.9034 -0.202,-0.9054 -0.1932,-0.9073 0.9954,-0.9108 1.0083,-0.8717 1.0206,-0.8314 1.0324,-0.7898 1.0438,-0.7468 1.0548,-0.7019 1.0655,-0.6546 1.0759,-0.6042 1.0865,-0.5497 1.0971,-0.4887 1.1088,-0.4167 -0.178,-1.3007 -0.1573,-1.3033 -0.1366,-1.3056 -0.1159,-1.3076 -1.1738,-0.1596 -1.1783,-0.2323 -1.1815,-0.2941 -1.1835,-0.3497 -1.1844,-0.4011 -1.1846,-0.4495 -1.1838,-0.4958 -1.1822,-0.5403 -1.18,-0.5835 -1.177,-0.6254 -1.1731,-0.6665 -0.0136,-0.9275 -0.005,-0.9277 0.005,-0.9277 0.0136,-0.9275 1.1731,-0.6665 1.177,-0.6254 1.18,-0.5835 1.1822,-0.5403 1.1838,-0.4958 1.1846,-0.4495 1.1844,-0.4011 1.1835,-0.3497 1.1815,-0.2941 1.1783,-0.2323 1.1738,-0.1596 0.1159,-1.3076 0.1366,-1.3056 0.1573,-1.3033 0.178,-1.3007 -1.1088,-0.4167 -1.0971,-0.4887 -1.0865,-0.5497 -1.0759,-0.6042 -1.0655,-0.6546 -1.0548,-0.7019 -1.0438,-0.7468 -1.0324,-0.7898 -1.0206,-0.8314 -1.0083,-0.8717 -0.9954,-0.9108 0.1932,-0.9073 0.202,-0.9054 0.2109,-0.9034 0.2195,-0.9013 1.2921,-0.3887 1.2866,-0.3478 1.2802,-0.3063 1.2729,-0.2637 1.2644,-0.2199 1.2549,-0.1747 1.244,-0.1275 1.2316,-0.0775 1.2173,-0.0239 1.2006,0.0358 1.1798,0.1056 0.4039,-1.2491 0.4238,-1.2425 0.4434,-1.2356 0.4629,-1.2284 -0.9883,-0.6531 -0.9609,-0.7205 -0.9368,-0.7777 -0.9146,-0.8285 -0.8931,-0.8753 -0.8722,-0.9189 -0.8514,-0.9604 -0.8308,-0.9997 -0.81,-1.0377 -0.789,-1.0741 -0.7678,-1.1095 0.3903,-0.8416 0.3984,-0.8377 0.4066,-0.8339 0.4146,-0.8298 1.3462,-0.0915 1.3317,-0.0528 1.3163,-0.0137 1.2996,0.0261 1.2817,0.067 1.2623,0.1089 1.2411,0.1526 1.218,0.1984 1.1921,0.2476 1.1625,0.302 1.1267,0.3655 0.6718,-1.1278 0.6896,-1.1171 0.7072,-1.1059 0.7247,-1.0947 -0.8181,-0.8565 -0.7765,-0.9164 -0.7404,-0.9666 -0.7072,-1.0112 -0.676,-1.0521 -0.6458,-1.09 -0.6164,-1.1257 -0.5874,-1.1596 -0.5588,-1.1919 -0.5302,-1.2228 -0.5017,-1.2525 0.5677,-0.7336 0.5749,-0.7281 0.5819,-0.7225 0.5889,-0.7167 1.3328,0.2104 1.3101,0.2448 1.2863,0.2795 1.2612,0.3147 1.2347,0.3505 1.2064,0.3871 1.1761,0.4249 1.1432,0.4645 1.1072,0.5067 1.0661,0.5531 1.0172,0.607 0.9059,-0.9501 0.9208,-0.9356 0.9356,-0.9208 0.9501,-0.9059 -0.607,-1.0172 -0.5531,-1.0661 -0.5067,-1.1072 -0.4645,-1.1432 -0.4249,-1.1761 -0.3871,-1.2064 -0.3505,-1.2347 -0.3147,-1.2612 -0.2795,-1.2863 -0.2448,-1.3101 -0.2104,-1.3328 0.7167,-0.5889 0.7225,-0.5819 0.7281,-0.5749 0.7336,-0.5677 1.2525,0.5017 1.2228,0.5302 1.1919,0.5588 1.1596,0.5874 1.1257,0.6164 1.09,0.6458 1.0521,0.676 1.0112,0.7072 0.9666,0.7404 0.9164,0.7765 0.8565,0.8181 1.0947,-0.7247 1.1059,-0.7072 1.1171,-0.6896 1.1278,-0.6718 -0.3655,-1.1267 -0.302,-1.1625 -0.2476,-1.1921 -0.1984,-1.218 -0.1526,-1.2411 -0.1089,-1.2623 -0.067,-1.2817 -0.0261,-1.2996 0.0137,-1.3163 0.0528,-1.3317 0.0915,-1.3462 0.8298,-0.4146 0.8339,-0.4066 0.8377,-0.3984 0.8416,-0.3903 1.1095,0.7678 1.0741,0.789 1.0377,0.81 0.9997,0.8308 0.9604,0.8514 0.9189,0.8722 0.8753,0.8931 0.8285,0.9146 0.7777,0.9368 0.7205,0.9609 0.6531,0.9883 1.2284,-0.4629 1.2356,-0.4434 1.2425,-0.4238 1.2491,-0.4039 -0.1056,-1.1798 -0.0358,-1.2006 0.0239,-1.2173 0.0775,-1.2316 0.1275,-1.244 0.1747,-1.2549 0.2199,-1.2644 0.2637,-1.2729 0.3063,-1.2802 0.3478,-1.2866 0.3887,-1.2921 0.9013,-0.2195 0.9034,-0.2109 0.9054,-0.202 0.9073,-0.1932 0.9108,0.9954 0.8717,1.0083 0.8314,1.0206 0.7898,1.0324 0.7468,1.0438 0.7019,1.0548 0.6546,1.0655 0.6042,1.0759 0.5497,1.0865 0.4887,1.0971 0.4167,1.1088 1.3007,-0.178 1.3033,-0.1573 1.3056,-0.1366 1.3076,-0.1159 0.1596,-1.1738 0.2323,-1.1783 0.2941,-1.1815 0.3497,-1.1835 0.4011,-1.1844 0.4495,-1.1846 0.4958,-1.1838 0.5403,-1.1822 0.5835,-1.18 0.6254,-1.177 0.6665,-1.1731 0.9275,-0.0136 0.9277,-0.005 0.9277,0.005 0.9275,0.0136 0.6665,1.1731 0.6254,1.177 0.5835,1.18 0.5403,1.1822 0.4958,1.1838 0.4495,1.1846 0.4011,1.1844 0.3497,1.1835 0.2941,1.1815 0.2323,1.1783 0.1596,1.1738 1.3076,0.1159 1.3056,0.1366 1.3033,0.1573 1.3007,0.178 0.4167,-1.1088 0.4887,-1.0971 0.5497,-1.0865 0.6042,-1.0759 0.6546,-1.0655 0.7019,-1.0548 0.7468,-1.0438 0.7898,-1.0324 0.8314,-1.0206 0.8717,-1.0083 0.9108,-0.9954 0.9073,0.1932 0.9054,0.202 0.9034,0.2109 0.9013,0.2195 0.3887,1.2921 0.3478,1.2866 0.3063,1.2802 0.2637,1.2729 0.2199,1.2644 0.1747,1.2549 0.1275,1.244 0.0775,1.2316 0.0239,1.2173 -0.0358,1.2006 -0.1056,1.1798 1.2491,0.4039 1.2425,0.4238 1.2356,0.4434 1.2284,0.4629 0.6531,-0.9883 0.7205,-0.9609 0.7777,-0.9368 0.8285,-0.9146 0.8753,-0.8931 0.9189,-0.8722 0.9604,-0.8514 0.9997,-0.8308 1.0377,-0.81 1.0741,-0.789 1.1095,-0.7678 0.8416,0.3903 0.8377,0.3984 0.8339,0.4066 0.8298,0.4146 0.0915,1.3462 0.0528,1.3317 0.0137,1.3163 -0.0261,1.2996 -0.067,1.2817 -0.1089,1.2623 -0.1526,1.2411 -0.1984,1.218 -0.2476,1.1921 -0.302,1.1625 -0.3655,1.1267 1.1278,0.6718 1.1171,0.6896 1.1059,0.7072 1.0947,0.7247 0.8565,-0.8181 0.9164,-0.7765 0.9666,-0.7404 1.0112,-0.7072 1.0521,-0.676 1.09,-0.6458 1.1257,-0.6164 1.1596,-0.5874 1.1919,-0.5588 1.2228,-0.5302 1.2525,-0.5017 0.7336,0.5677 0.7281,0.5749 0.7225,0.5819 0.7167,0.5889 -0.2104,1.3328 -0.2448,1.3101 -0.2795,1.2863 -0.3147,1.2612 -0.3505,1.2347 -0.3871,1.2064 -0.4249,1.1761 -0.4645,1.1432 -0.5067,1.1072 -0.5531,1.0661 -0.607,1.0172 0.9501,0.9059 0.9356,0.9208 0.9208,0.9356 0.9059,0.9501 1.0172,-0.607 1.0661,-0.5531 1.1072,-0.5067 1.1432,-0.4645 1.1761,-0.4249 1.2064,-0.3871 1.2347,-0.3505 1.2612,-0.3147 1.2863,-0.2795 1.3101,-0.2448 1.3328,-0.2104 0.5889,0.7167 0.5819,0.7225 0.5749,0.7281 0.5677,0.7336 -0.5017,1.2525 -0.5302,1.2228 -0.5588,1.1919 -0.5874,1.1596 -0.6164,1.1257 -0.6458,1.09 -0.676,1.0521 -0.7072,1.0112 -0.7404,0.9666 -0.7765,0.9164 -0.8181,0.8565 0.7247,1.0947 0.7072,1.1059 0.6896,1.1171 0.6718,1.1278 1.1267,-0.3655 1.1625,-0.302 1.1921,-0.2476 1.218,-0.1984 1.2411,-0.1526 1.2623,-0.1089 1.2817,-0.067 1.2996,-0.0261 1.3163,0.0137 1.3317,0.0528 1.3462,0.0915 0.4146,0.8298 0.4066,0.8339 0.3984,0.8377 0.3903,0.8416 -0.7678,1.1095 -0.789,1.0741 -0.81,1.0377 -0.8308,0.9997 -0.8514,0.9604 -0.8722,0.9189 -0.8931,0.8753 -0.9146,0.8285 -0.9368,0.7777 -0.9609,0.7205 -0.9883,0.6531 0.4629,1.2284 0.4434,1.2356 0.4238,1.2425 0.4039,1.2491 1.1798,-0.1056 1.2006,-0.0358 1.2173,0.0239 1.2316,0.0775 1.244,0.1275 1.2549,0.1747 1.2644,0.2199 1.2729,0.2637 1.2802,0.3063 1.2866,0.3478 1.2921,0.3887 0.2195,0.9013 0.2109,0.9034 0.202,0.9054 0.1932,0.9073 -0.9954,0.9108 -1.0083,0.8717 -1.0206,0.8314 -1.0324,0.7898 -1.0438,0.7468 -1.0548,0.7019 -1.0655,0.6546 -1.0759,0.6042 -1.0865,0.5497 -1.0971,0.4887 -1.1088,0.4167 0.178,1.3007 0.1573,1.3033 0.1366,1.3056 z m -74.9927,16.653 a 12.5,12.5 0 0 1 -2.58975,1.49519 l -27.22938,47.16268 a 62.76057,62.76057 0 0 0 84.2779,-48.65787 z m -19.91025,-8.50481 a 12.5,12.5 0 0 1 0,-2.99038 l -27.22939,-47.16268 a 62.76057,62.76057 0 0 0 0,97.31574 z m 17.3205,-12.99038 a 12.5,12.5 0 0 1 2.58975,1.49519 h 54.45877 a 62.76057,62.76057 0 0 0 -84.2779,-48.65787 z m -4.91025,13.99519 a 2.5,2.5 0 0 0 0,-5 2.5,2.5 0 0 0 0,5"
         id="path3071" />
      <path
         inkscape:label="Center cross"
         style="fill:none;stroke:#000000;stroke-width:0.15"
         d="m 349.97518,438.24628 h 13.33334 m -6.66667,-6.66667 v 13.33334"
         id="path3073" />
      <circle
         style="fill:none;stroke:#000000;stroke-width:0.15"
         cx="356.64185"
         cy="438.24628"
         r="89.12677"
         inkscape:label="Pitch circle"
         id="circle3075" />
    </g>
    <text
       inkscape:label="Annotation"
       style="font-style:normal;font-weight:normal;font-size:15px;font-family:'Bitstream Vera Sans', sans-serif;text-align:center;text-anchor:middle;fill:#f6921e"
       x="356.64185"
       y="164.13077"
       id="text3077">Teeth: 28 CP: 20.0000(mm)</text>
    <text
       inkscape:label="Annotation"
       style="font-style:normal;font-weight:normal;font-size:15px;font-family:'Bitstream Vera Sans', sans-serif;text-align:center;text-anchor:middle;fill:#f6921e"
       x="356.64185"
       y="186.38992"
       id="text3079">DP: 0.157 Module: 161.7014</text>
    <text
       inkscape:label="Annotation"
       style="font-style:normal;font-weight:normal;font-size:15px;font-family:'Bitstream Vera Sans', sans-serif;text-align:center;text-anchor:middle;fill:#f6921e"
       x="356.64185"
       y="208.64908"
       id="text3081">Pressure Angle: 24.00 degrees</text>
    <text
       inkscape:label="Annotation"
       style="font-style:normal;font-weight:normal;font-size:15px;font-family:'Bitstream Vera Sans', sans-serif;text-align:center;text-anchor:middle;fill:#f6921e"
       x="356.64185"
       y="230.90823"
       id="text3083">Pitch diameter: 178.254 mm</text>
    <text
       inkscape:label="Annotation"
       style="font-style:normal;font-weight:normal;font-size:15px;font-family:'Bitstream Vera Sans', sans-serif;text-align:center;text-anchor:middle;fill:#f6921e"
       x="356.64185"
       y="253.16739"
       id="text3085">Outer diameter: 190.986 mm</text>
    <text
       inkscape:label="Annotation"
       style="font-style:normal;font-weight:normal;font-size:15px;font-family:'Bitstream Vera Sans', sans-serif;text-align:center;text-anchor:middle;fill:#f6921e"
       x="356.64185"
       y="275.42654"
       id="text3087">Root diameter: 165.521 mm</text>
    <text
       inkscape:label="Annotation"
       style="font-style:normal;font-weight:normal;font-size:15px;font-family:'Bitstream Vera Sans', sans-serif;text-align:center;text-anchor:middle;fill:#f6921e"
       x="356.64185"
       y="297.6857"
       id="text3089">Base diameter: 162.843 mm</text>
    <g
       inkscape:label="Gear14"
       inkscape:transform-center-y="7.1054274e-15"
       transform="translate(144.98709,57.38006)"
       info="N:14; Pitch:20.0; Pressure Angle: 24.0"
       id="g4654">
      <path
         style="fill:none;stroke:#000000;stroke-width:0.6"
         d="m 40.3206,-5.6224 0.9383,0.0044 0.9531,0.1191 0.9615,0.1985 0.967,0.2664 0.9703,0.328 0.9718,0.3857 0.9714,0.4407 0.9694,0.4937 0.9659,0.5451 0.9608,0.5952 0.9543,0.6445 0.0189,0.8005 L 50.9296,0 50.9233,0.8006 50.9044,1.6011 49.9501,2.2456 48.9893,2.8408 48.0234,3.3859 47.054,3.8796 46.0826,4.3203 45.1108,4.706 44.1405,5.034 43.1735,5.3004 42.212,5.4989 41.2589,5.618 40.3206,5.6224 37.8312,5.2753 l -0.2613,1.6185 -0.3304,1.6059 -0.399,1.5902 -0.4669,1.5716 2.3934,0.7673 0.8436,0.4111 0.807,0.5208 0.7801,0.5961 0.7557,0.6595 0.7319,0.7166 0.7082,0.7691 0.6839,0.8185 0.6593,0.8654 0.6337,0.9102 0.6074,0.9533 0.5802,0.9947 -0.3303,0.7293 -0.3417,0.7241 -0.3531,0.7186 -0.3643,0.713 -1.1394,0.1666 -1.124,0.1195 -1.1067,0.072 -1.0877,0.0241 -1.0664,-0.0244 -1.0428,-0.0741 -1.0166,-0.1254 -0.9868,-0.1796 -0.9524,-0.2383 -0.9103,-0.3063 -0.8474,-0.4031 -2.0923,-1.3929 -0.9376,1.3449 -0.9944,1.3035 -1.0495,1.2595 -1.1026,1.2134 1.8235,1.7299 0.5817,0.7364 0.5011,0.8193 0.4443,0.8755 0.3946,0.9222 0.3486,0.9631 0.3042,1.0002 0.2612,1.0343 0.2184,1.0657 0.1761,1.095 0.1336,1.1224 0.0912,1.1479 -0.6141,0.5138 -0.622,0.5042 -0.6299,0.4942 -0.6376,0.4843 -1.0988,-0.3442 -1.0645,-0.3801 -1.0284,-0.4153 -0.9904,-0.4501 -0.9502,-0.4847 -0.9075,-0.5193 -0.8614,-0.5541 -0.8112,-0.5899 -0.7547,-0.628 -0.6873,-0.6709 -0.5885,-0.7309 -1.2807,-2.1627 -1.4283,0.8049 -1.4616,0.7429 -1.492,0.6795 -1.5199,0.6148 0.8924,2.3497 0.2045,0.9159 0.096,0.9556 0.0204,0.9816 -0.0445,1.002 -0.1039,1.019 -0.1598,1.0332 -0.2135,1.0451 -0.2655,1.055 -0.3165,1.063 -0.3666,1.0692 -0.416,1.0738 -0.7761,0.1965 -0.7792,0.1843 -0.782,0.172 L 9.7664,49.9844 8.9257,49.1975 8.1315,48.3932 7.3852,47.5728 6.6882,46.7375 6.0424,45.8885 5.4501,45.027 4.9144,44.154 4.4395,43.2705 4.032,42.3773 3.7038,41.4746 3.4907,40.5607 3.2752,38.0565 1.6391,38.162 0,38.1972 -1.6391,38.162 l -1.6361,-0.1055 -0.2155,2.5042 -0.2131,0.9139 -0.3282,0.9027 -0.4075,0.8932 -0.4749,0.8835 -0.5357,0.873 -0.5923,0.8615 -0.6458,0.849 -0.697,0.8353 -0.7463,0.8204 -0.7942,0.8043 -0.8407,0.7869 -0.7845,-0.1597 -0.782,-0.172 -0.7792,-0.1843 -0.7761,-0.1965 -0.416,-1.0738 -0.3666,-1.0692 -0.3165,-1.063 -0.2655,-1.055 -0.2135,-1.0451 -0.1598,-1.0332 -0.1039,-1.019 -0.0445,-1.002 0.0204,-0.9816 0.096,-0.9556 0.2045,-0.9159 0.8924,-2.3497 -1.5199,-0.6148 -1.492,-0.6795 -1.4616,-0.7429 -1.4283,-0.8049 -1.2807,2.1627 -0.5885,0.7309 -0.6873,0.6709 -0.7547,0.628 -0.8112,0.5899 -0.8614,0.5541 -0.9075,0.5193 -0.9502,0.4847 -0.9904,0.4501 -1.0284,0.4153 -1.0645,0.3801 -1.0988,0.3442 -0.6376,-0.4843 -0.6299,-0.4942 -0.622,-0.5042 -0.6141,-0.5138 0.0912,-1.1479 0.1336,-1.1224 0.1761,-1.095 0.2184,-1.0657 0.2612,-1.0343 0.3042,-1.0002 0.3486,-0.9631 0.3946,-0.9222 0.4443,-0.8755 0.5011,-0.8193 0.5817,-0.7364 1.8235,-1.7299 -1.1026,-1.2134 -1.0495,-1.2595 -0.9944,-1.3035 -0.9376,-1.3449 -2.0923,1.3929 -0.8474,0.4031 -0.9103,0.3063 -0.9524,0.2383 -0.9868,0.1796 -1.0166,0.1254 -1.0428,0.0741 -1.0664,0.0244 -1.0877,-0.0241 -1.1067,-0.072 -1.124,-0.1195 -1.1394,-0.1666 -0.3643,-0.713 -0.3531,-0.7186 -0.3417,-0.7241 -0.3303,-0.7293 0.5802,-0.9947 0.6074,-0.9533 0.6337,-0.9102 0.6593,-0.8654 0.6839,-0.8185 0.7082,-0.7691 0.7319,-0.7166 0.7557,-0.6595 0.7801,-0.5961 0.807,-0.5208 0.8436,-0.4111 2.3934,-0.7673 -0.4669,-1.5716 -0.399,-1.5902 -0.3304,-1.6059 -0.2613,-1.6185 -2.4894,0.3471 L -41.2589,5.618 -42.212,5.4989 -43.1735,5.3004 -44.1405,5.034 -45.1108,4.706 -46.0826,4.3203 -47.054,3.8796 -48.0234,3.3859 -48.9893,2.8408 -49.9501,2.2456 -50.9044,1.6011 -50.9233,0.8006 -50.9296,0 l 0.0063,-0.8006 0.0189,-0.8005 0.9543,-0.6445 0.9608,-0.5952 0.9659,-0.5451 0.9694,-0.4937 0.9714,-0.4407 0.9718,-0.3857 0.9703,-0.328 0.967,-0.2664 0.9615,-0.1985 0.9531,-0.1191 0.9383,-0.0044 2.4894,0.3471 0.2613,-1.6185 0.3304,-1.6059 0.399,-1.5902 0.4669,-1.5716 -2.3934,-0.7673 -0.8436,-0.4111 -0.807,-0.5208 -0.7801,-0.5961 -0.7557,-0.6595 -0.7319,-0.7166 -0.7082,-0.7691 -0.6839,-0.8185 -0.6593,-0.8654 -0.6337,-0.9102 -0.6074,-0.9533 -0.5802,-0.9947 0.3303,-0.7293 0.3417,-0.7241 0.3531,-0.7186 0.3643,-0.713 1.1394,-0.1666 1.124,-0.1195 1.1067,-0.072 1.0877,-0.0241 1.0664,0.0244 1.0428,0.0741 1.0166,0.1254 0.9868,0.1796 0.9524,0.2383 0.9103,0.3063 0.8474,0.4031 2.0923,1.3929 0.9376,-1.3449 0.9944,-1.3035 1.0495,-1.2595 1.1026,-1.2134 -1.8235,-1.7299 -0.5817,-0.7364 -0.5011,-0.8193 -0.4443,-0.8755 -0.3946,-0.9222 -0.3486,-0.9631 -0.3042,-1.0002 -0.2612,-1.0343 -0.2184,-1.0657 -0.1761,-1.095 -0.1336,-1.1224 -0.0912,-1.1479 0.6141,-0.5138 0.622,-0.5042 0.6299,-0.4942 0.6376,-0.4843 1.0988,0.3442 1.0645,0.3801 1.0284,0.4153 0.9904,0.4501 0.9502,0.4847 0.9075,0.5193 0.8614,0.5541 0.8112,0.5899 0.7547,0.628 0.6873,0.6709 0.5885,0.7309 1.2807,2.1627 1.4283,-0.8049 1.4616,-0.7429 1.492,-0.6795 1.5199,-0.6148 -0.8924,-2.3497 -0.2045,-0.9159 -0.096,-0.9556 -0.0204,-0.9816 0.0445,-1.002 0.1039,-1.019 0.1598,-1.0332 0.2135,-1.0451 0.2655,-1.055 0.3165,-1.063 0.3666,-1.0692 0.416,-1.0738 0.7761,-0.1965 0.7792,-0.1843 0.782,-0.172 0.7845,-0.1597 0.8407,0.7869 0.7942,0.8043 0.7463,0.8204 0.697,0.8353 0.6458,0.849 0.5923,0.8615 0.5357,0.873 0.4749,0.8835 0.4075,0.8932 0.3282,0.9027 0.2131,0.9139 0.2155,2.5042 1.6361,-0.1055 1.6391,-0.0352 1.6391,0.0352 1.6361,0.1055 0.2155,-2.5042 0.2131,-0.9139 0.3282,-0.9027 0.4075,-0.8932 0.4749,-0.8835 0.5357,-0.873 0.5923,-0.8615 0.6458,-0.849 0.697,-0.8353 0.7463,-0.8204 0.7942,-0.8043 0.8407,-0.7869 0.7845,0.1597 0.782,0.172 0.7792,0.1843 0.7761,0.1965 0.416,1.0738 0.3666,1.0692 0.3165,1.063 0.2655,1.055 0.2135,1.0451 0.1598,1.0332 0.1039,1.019 0.0445,1.002 -0.0204,0.9816 -0.096,0.9556 -0.2045,0.9159 -0.8924,2.3497 1.5199,0.6148 1.492,0.6795 1.4616,0.7429 1.4283,0.8049 1.2807,-2.1627 0.5885,-0.7309 0.6873,-0.6709 0.7547,-0.628 0.8112,-0.5899 0.8614,-0.5541 0.9075,-0.5193 0.9502,-0.4847 0.9904,-0.4501 1.0284,-0.4153 1.0645,-0.3801 1.0988,-0.3442 0.6376,0.4843 0.6299,0.4942 0.622,0.5042 0.6141,0.5138 -0.0912,1.1479 -0.1336,1.1224 -0.1761,1.095 -0.2184,1.0657 -0.2612,1.0343 -0.3042,1.0002 -0.3486,0.9631 -0.3946,0.9222 -0.4443,0.8755 -0.5011,0.8193 -0.5817,0.7364 -1.8235,1.7299 1.1026,1.2134 1.0495,1.2595 0.9944,1.3035 0.9376,1.3449 2.0923,-1.3929 0.8474,-0.4031 0.9103,-0.3063 0.9524,-0.2383 0.9868,-0.1796 1.0166,-0.1254 1.0428,-0.0741 1.0664,-0.0244 1.0877,0.0241 1.1067,0.072 1.124,0.1195 1.1394,0.1666 0.3643,0.713 0.3531,0.7186 0.3417,0.7241 0.3303,0.7293 -0.5802,0.9947 -0.6074,0.9533 -0.6337,0.9102 -0.6593,0.8654 -0.6839,0.8185 -0.7082,0.7691 -0.7319,0.7166 -0.7557,0.6595 -0.7801,0.5961 -0.807,0.5208 -0.8436,0.4111 -2.3934,0.7673 0.4669,1.5716 0.399,1.5902 0.3304,1.6059 0.2613,1.6185 z M 10.965856,6 A 12.5,12.5 0 0 1 -0.286776,12.49671 L -7.554265,25.084371 A 26.197186,26.197186 0 0 0 25.500835,6 Z M -10.67908,6.49671 a 12.5,12.5 0 0 1 0,-12.99342 l -7.26749,-12.587661 a 26.197186,26.197186 0 0 0 0,38.168742 z M -0.286776,-12.49671 A 12.5,12.5 0 0 1 10.965856,-6 h 14.534979 a 26.197186,26.197186 0 0 0 -33.0551,-19.084371 z M 0,2.5 a 2.5,2.5 0 0 0 0,-5 2.5,2.5 0 0 0 0,5"
         id="path4634" />
      <path
         inkscape:label="Center cross"
         style="fill:none;stroke:#000000;stroke-width:0.15"
         d="M -6.6666667,0 H 6.6666667 M 0,-6.6666667 V 6.6666667"
         id="path4636" />
      <circle
         style="fill:none;stroke:#000000;stroke-width:0.15"
         cx="0"
         cy="0"
         r="44.563385"
         inkscape:label="Pitch circle"
         id="circle4638" />
      <text
         inkscape:label="Annotation"
         style="font-style:normal;font-weight:normal;font-size:11px;font-family:'Bitstream Vera Sans', sans-serif;text-align:center;text-anchor:middle;fill:#f6921e"
         x="0"
         y="-182.31494"
         id="text4640">Teeth: 14 CP: 20.0000(mm)</text>
      <text
         inkscape:label="Annotation"
         style="font-style:normal;font-weight:normal;font-size:11px;font-family:'Bitstream Vera Sans', sans-serif;text-align:center;text-anchor:middle;fill:#f6921e"
         x="0"
         y="-165.40338"
         id="text4642">DP: 0.157 Module: 161.7014</text>
      <text
         inkscape:label="Annotation"
         style="font-style:normal;font-weight:normal;font-size:11px;font-family:'Bitstream Vera Sans', sans-serif;text-align:center;text-anchor:middle;fill:#f6921e"
         x="0"
         y="-148.49184"
         id="text4644">Pressure Angle: 24.00 degrees</text>
      <text
         inkscape:label="Annotation"
         style="font-style:normal;font-weight:normal;font-size:11px;font-family:'Bitstream Vera Sans', sans-serif;text-align:center;text-anchor:middle;fill:#f6921e"
         x="0"
         y="-131.58029"
         id="text4646">Pitch diameter: 89.127 mm</text>
      <text
         inkscape:label="Annotation"
         style="font-style:normal;font-weight:normal;font-size:11px;font-family:'Bitstream Vera Sans', sans-serif;text-align:center;text-anchor:middle;fill:#f6921e"
         x="0"
         y="-114.66874"
         id="text4648">Outer diameter: 101.859 mm</text>
      <text
         inkscape:label="Annotation"
         style="font-style:normal;font-weight:normal;font-size:11px;font-family:'Bitstream Vera Sans', sans-serif;text-align:center;text-anchor:middle;fill:#f6921e"
         x="0"
         y="-97.757187"
         id="text4650">Root diameter: 76.394 mm</text>
      <text
         inkscape:label="Annotation"
         style="font-style:normal;font-weight:normal;font-size:11px;font-family:'Bitstream Vera Sans', sans-serif;text-align:center;text-anchor:middle;fill:#f6921e"
         x="0"
         y="-80.845642"
         id="text4652">Base diameter: 81.421 mm</text>
    </g>
  </g>
</svg>
