<?xml version="1.0" encoding="UTF-8" standalone="no"?>
<!-- Created with Inkscape (http://www.inkscape.org/) -->

<svg
   width="297mm"
   height="210mm"
   viewBox="0 0 297 210"
   version="1.1"
   id="svg5"
   inkscape:version="1.1.2 (0a00cf5339, 2022-02-04)"
   sodipodi:docname="letters.svg"
   xmlns:inkscape="http://www.inkscape.org/namespaces/inkscape"
   xmlns:sodipodi="http://sodipodi.sourceforge.net/DTD/sodipodi-0.dtd"
   xmlns="http://www.w3.org/2000/svg"
   xmlns:svg="http://www.w3.org/2000/svg">
  <sodipodi:namedview
     id="namedview7"
     pagecolor="#ffffff"
     bordercolor="#666666"
     borderopacity="1.0"
     inkscape:pageshadow="2"
     inkscape:pageopacity="0.0"
     inkscape:pagecheckerboard="0"
     inkscape:document-units="mm"
     showgrid="false"
     inkscape:zoom="0.47660634"
     inkscape:cx="844.51247"
     inkscape:cy="393.40643"
     inkscape:window-width="1366"
     inkscape:window-height="719"
     inkscape:window-x="0"
     inkscape:window-y="25"
     inkscape:window-maximized="1"
     inkscape:current-layer="layer1"
     inkscape:snap-global="false" />
  <defs
     id="defs2" />
  <g
     inkscape:label="Ebene 1"
     inkscape:groupmode="layer"
     id="layer1">
    <g
       aria-label="L N A U"
       id="text2320"
       style="font-size:123.472px;line-height:1.25;fill:none;stroke:#000000;stroke-width:0.5;stroke-miterlimit:4;stroke-dasharray:none;stroke-opacity:1"
       transform="translate(-2.4971411,8.9875302)">
      <path
         d="m 42.833013,137.27288 q -3.827632,0 -8.149152,0.24694 -4.198048,0.24695 -8.519568,0.74084 -4.32152,0.49388 -8.519568,1.35819 -4.074576,0.74083 -7.40832,1.85208 0.740832,-5.55624 1.728608,-12.3472 0.987776,-6.79096 2.222496,-14.07581 1.358192,-7.28485 2.592912,-14.69317 1.358192,-7.408318 2.716384,-14.199278 3.0868,-16.174832 6.544016,-32.967024 l 21.6076,-2.839856 q -3.333744,14.322752 -6.420544,27.904672 -1.358192,5.803184 -2.716384,12.100256 -1.358192,6.1736 -2.592912,12.10026 -1.23472,5.92665 -2.222496,11.48289 -0.987776,5.55624 -1.605136,9.87776 3.0868,-0.24694 6.544016,-0.24694 3.580688,-0.12347 6.297072,-0.12347 0.123472,2.34596 0.370416,4.69193 0.246944,2.2225 0.493888,4.07458 0.370416,1.85208 0.493888,3.33374 0.246944,1.35819 0.370416,1.85208 -0.987776,0 -1.975552,0 -0.864304,-0.12347 -1.85208,-0.12347 z"
         style="font-family:Bangers;-inkscape-font-specification:Bangers;fill:none;stroke:#000000;stroke-width:0.5;stroke-miterlimit:4;stroke-dasharray:none;stroke-opacity:1"
         id="path19240" />
      <path
         d="m 70.860891,141.84134 q 3.457216,-17.40955 6.667488,-33.9548 1.23472,-6.91443 2.592912,-14.44622 1.481664,-7.655264 2.716384,-14.940112 1.23472,-7.40832 2.222496,-14.19928 1.111248,-6.914432 1.728608,-12.594144 3.827632,-0.246944 7.40832,-0.493888 3.210272,-0.246944 6.544021,-0.370416 3.33374,-0.246944 5.92665,-0.493888 1.60514,9.507344 2.83986,18.150384 0.61736,3.70416 1.23472,7.778736 0.74083,3.951104 1.35819,7.655264 0.61736,3.70416 1.23472,7.161376 0.61736,3.333744 1.23472,5.926656 0.49389,-2.592912 1.11125,-5.926656 0.61736,-3.457216 1.35819,-7.161376 0.74083,-3.827632 1.48166,-7.778736 0.86431,-3.951104 1.60514,-7.655264 1.85208,-8.64304 3.82763,-18.026912 l 15.06359,-1.85208 q -4.19805,18.5208 -7.40832,35.066048 -1.48167,7.161376 -2.96333,14.446224 -1.35819,7.284844 -2.59291,14.075804 -1.23472,6.79096 -2.09903,12.59415 -0.8643,5.67971 -1.35819,9.63081 -0.37042,0 -2.96333,0.61736 -2.46944,0.49389 -5.80318,1.23472 -3.21027,0.74084 -6.54402,1.60514 -3.21027,0.74083 -4.81541,1.23472 -0.8643,-10.00123 -1.85208,-19.01469 -0.37041,-3.82763 -0.864301,-7.90221 -0.493888,-4.07457 -0.987776,-7.77873 -0.370416,-3.70416 -0.864304,-6.914434 -0.370416,-3.333744 -0.740832,-5.55624 -0.370416,2.222496 -0.987776,5.432768 -0.61736,3.210276 -1.23472,6.914436 -0.61736,3.58068 -1.23472,7.53179 -0.61736,3.82763 -1.358192,7.53179 -1.605136,8.76651 -3.457216,18.27386 z"
         style="font-family:Bangers;-inkscape-font-specification:Bangers;fill:none;stroke:#000000;stroke-width:0.5;stroke-miterlimit:4;stroke-dasharray:none;stroke-opacity:1"
         id="path19242" />
      <path
         d="m 195.56747,138.75454 q -3.0868,0.49389 -6.79096,1.11125 -3.70416,0.61736 -6.66749,1.11125 0.49389,-4.07458 0.98778,-8.02568 0.37041,-3.45722 0.61736,-6.91443 0.37041,-3.45722 0.61736,-5.92666 h -10.74207 l -4.93888,17.77997 q -2.71638,0.37042 -6.42054,0.8643 -3.70416,0.37042 -6.91443,0.74084 -3.95111,0.49388 -7.77874,0.98777 4.93888,-16.42177 9.75429,-32.34966 1.97555,-6.66749 4.07457,-13.952338 2.2225,-7.284848 4.32152,-14.446224 2.2225,-7.284848 4.19805,-13.952336 1.97555,-6.667488 3.45722,-12.223728 8.39609,-0.61736 17.03913,-1.481664 8.76652,-0.864304 17.03914,-2.345968 -0.37042,3.951104 -0.8643,9.87776 -0.37042,5.803184 -0.74084,12.717616 -0.37041,6.914432 -0.74083,14.446224 -0.37041,7.531792 -0.74083,14.816638 -0.61736,17.03914 -1.35819,36.1773 -3.70416,0.61736 -7.40832,0.98777 z m -19.01469,-30.99147 q 0.49389,0 1.72861,0 1.35819,-0.12347 2.71638,-0.12347 1.48167,-0.12347 2.71639,-0.12347 1.23472,-0.12347 1.7286,-0.24695 0,-0.74083 0.12348,-2.46944 0.24694,-1.85208 0.37041,-4.07457 0.24695,-2.34597 0.49389,-5.062354 0.24694,-2.716384 0.49389,-5.309296 0.49389,-6.297072 1.23472,-13.58192 l 0.74083,-10.742064 -1.85208,0.123472 -2.83986,10.618592 z"
         style="font-family:Bangers;-inkscape-font-specification:Bangers;fill:none;stroke:#000000;stroke-width:0.5;stroke-miterlimit:4;stroke-dasharray:none;stroke-opacity:1"
         id="path19244" />
      <path
         d="m 279.03433,117.14694 q -1.72861,7.03791 -4.93888,11.97679 -3.0868,4.93888 -7.40832,8.14915 -4.19805,3.21027 -9.01346,4.69194 -4.8154,1.48166 -9.63081,1.48166 -2.83986,0 -5.80319,-0.98778 -2.96332,-0.8643 -5.30929,-2.71638 -2.34597,-1.85208 -3.95111,-4.69194 -1.48166,-2.83985 -1.48166,-6.66748 0,-0.49389 0,-0.98778 0,-0.49389 0.12347,-0.98778 0.49389,-5.06235 1.60514,-12.22372 1.11125,-7.16138 2.34597,-14.940116 1.23472,-7.778736 2.71638,-15.557472 1.48166,-7.902208 2.59291,-14.322752 1.23472,-6.420544 2.09903,-10.618592 0.8643,-4.32152 1.11124,-5.309296 2.59292,-0.246944 6.1736,-0.61736 3.58069,-0.370416 6.66749,-0.61736 3.82763,-0.370416 7.53179,-0.740832 -3.21027,14.940112 -5.67971,27.040368 -1.11125,5.185824 -2.22249,10.371648 -0.98778,5.185824 -1.97556,9.507344 -0.8643,4.32152 -1.60513,7.53179 -0.61736,3.0868 -1.11125,5.06235 -0.37042,1.97556 -0.98778,5.06236 -0.49388,2.96332 -0.49388,5.43276 0,1.97556 0.98777,3.33375 0.98778,1.23472 2.46944,1.23472 2.09903,0 3.45722,-1.60514 1.35819,-1.72861 2.22249,-4.07457 0.98778,-2.34597 1.3582,-4.69194 0.49388,-2.46944 0.8643,-3.82763 0.74083,-3.58069 1.60514,-7.90221 0.98777,-4.444992 1.85208,-9.136928 0.98777,-4.815408 1.85208,-9.754288 0.98777,-4.93888 1.85208,-9.630816 2.09902,-10.865536 4.07457,-22.471904 l 18.76775,-1.23472 q 0,0 -0.61736,3.210272 -0.61736,3.210272 -1.60514,8.519568 -0.98778,5.309296 -2.2225,12.100256 -1.11124,6.79096 -2.59291,14.19928 -1.48166,7.284848 -2.96333,14.44622 -1.35819,7.03791 -2.71638,12.96456 z"
         style="font-family:Bangers;-inkscape-font-specification:Bangers;fill:none;stroke:#000000;stroke-width:0.5;stroke-miterlimit:4;stroke-dasharray:none;stroke-opacity:1"
         id="path19246" />
    </g>
    <text
       xml:space="preserve"
       style="font-style:normal;font-weight:normal;font-size:4.23333px;line-height:1.25;font-family:sans-serif;fill:#000000;fill-opacity:1;stroke:none;stroke-width:0.264583"
       x="13.409595"
       y="197.36897"
       id="text20676"><tspan
         sodipodi:role="line"
         id="tspan20674"
         style="font-size:4.23333px;stroke-width:0.264583"
         x="13.409595"
         y="197.36897">Font: Bangers</tspan></text>
  </g>
</svg>
