<?xml version="1.0" encoding="utf-8" ?>
<svg xmlns="http://www.w3.org/2000/svg" xmlns:ev="http://www.w3.org/2001/xml-events" xmlns:xlink="http://www.w3.org/1999/xlink" baseProfile="full" height="297.0mm" version="1.1" width="210.0mm">
  <defs/>
  <circle cx="105.0mm" cy="148.5mm" fill="none" r="35.5mm" stroke="rgb(128,128,128)" stroke-width="0.5mm"/>
  <circle cx="105.0mm" cy="148.5mm" fill="none" r="38.5mm" stroke="rgb(0,0,0)" stroke-width="0.5mm"/>
  <circle cx="105.0mm" cy="148.5mm" fill="none" r="41.0mm" stroke="rgb(0,0,0)" stroke-width="0.5mm"/>
  <circle cx="105.0mm" cy="148.5mm" fill="none" r="56.0mm" stroke="rgb(0,0,0)" stroke-width="0.5mm"/>
  <circle cx="105.0mm" cy="148.5mm" fill="none" r="64.0mm" stroke="rgb(0,0,0)" stroke-width="0.5mm"/>
  <circle cx="105.0mm" cy="148.5mm" fill="none" r="74.0mm" stroke="rgb(0,0,0)" stroke-width="0.5mm"/>
  <line stroke="rgb(255,0,0)" stroke-width="0.5mm" x1="31.0mm" x2="179.0mm" y1="148.5mm" y2="148.5mm"/>
  <rect fill="none" height="10mm" stroke="rgb(0,0,0)" width="10mm" x="133.5mm" y="143.5mm"/>
  <rect fill="none" height="10mm" stroke="rgb(0,0,0)" width="10mm" x="66.5mm" y="143.5mm"/>
  <circle cx="105.0mm" cy="208.5mm" fill="none" r="4.0mm" stroke="rgb(0,0,0)" stroke-width="0.5mm"/>
  <text x="105.0mm" y="208.5mm">0</text>
  <circle cx="143.56725658119234mm" cy="194.46266658713867mm" fill="none" r="4.0mm" stroke="rgb(0,0,0)" stroke-width="0.5mm"/>
  <text x="143.56725658119234mm" y="194.46266658713867mm">1</text>
  <circle cx="164.0884651807325mm" cy="158.91889066001582mm" fill="none" r="4.0mm" stroke="rgb(0,0,0)" stroke-width="0.5mm"/>
  <text x="164.0884651807325mm" y="158.91889066001582mm">2</text>
  <circle cx="156.96152422706632mm" cy="118.50000000000001mm" fill="none" r="4.0mm" stroke="rgb(0,0,0)" stroke-width="0.5mm"/>
  <text x="156.96152422706632mm" y="118.50000000000001mm">3</text>
  <circle cx="125.52120859954013mm" cy="92.11844275284551mm" fill="none" r="4.0mm" stroke="rgb(0,0,0)" stroke-width="0.5mm"/>
  <text x="125.52120859954013mm" y="92.11844275284551mm">4</text>
  <circle cx="84.47879140045988mm" cy="92.1184427528455mm" fill="none" r="4.0mm" stroke="rgb(0,0,0)" stroke-width="0.5mm"/>
  <text x="84.47879140045988mm" y="92.1184427528455mm">5</text>
  <circle cx="53.038475772933694mm" cy="118.49999999999997mm" fill="none" r="4.0mm" stroke="rgb(0,0,0)" stroke-width="0.5mm"/>
  <text x="53.038475772933694mm" y="118.49999999999997mm">6</text>
  <circle cx="45.911534819267516mm" cy="158.9188906600158mm" fill="none" r="4.0mm" stroke="rgb(0,0,0)" stroke-width="0.5mm"/>
  <text x="45.911534819267516mm" y="158.9188906600158mm">7</text>
  <circle cx="66.43274341880763mm" cy="194.46266658713867mm" fill="none" r="4.0mm" stroke="rgb(0,0,0)" stroke-width="0.5mm"/>
  <text x="66.43274341880763mm" y="194.46266658713867mm">8</text>
</svg>
